<?xml version="1.0" standalone="no"?><!DOCTYPE svg PUBLIC "-//W3C//DTD SVG 1.1//EN" "http://www.w3.org/Graphics/SVG/1.1/DTD/svg11.dtd"><svg t="1509880090672" class="icon" style="" viewBox="0 0 1024 1024" version="1.1" xmlns="http://www.w3.org/2000/svg" p-id="1442" xmlns:xlink="http://www.w3.org/1999/xlink" width="200" height="200"><defs><style type="text/css"></style></defs><path d="M512 183.29088c55.36256 0 105.48736 22.44608 141.76768 58.73152 36.29056 36.28544 58.73152 86.41024 58.73152 141.76768s-22.44096 105.48736-58.73152 141.76768c-36.28544 36.29056-86.41024 58.73664-141.76768 58.73664s-105.48736-22.44608-141.76768-58.73664C333.94688 489.27744 311.5008 439.14752 311.5008 383.79008s22.44608-105.48736 58.73152-141.76768C406.51264 205.73696 456.64256 183.29088 512 183.29088z m108.17024 92.33408C592.49152 247.936 554.24 230.8096 512 230.8096s-80.4864 17.1264-108.17024 44.81024c-27.68384 27.68384-44.81024 65.93024-44.81024 108.17024s17.1264 80.4864 44.81024 108.17024c27.68384 27.68384 65.93024 44.81024 108.17024 44.81024s80.49152-17.1264 108.17024-44.81024c27.68384-27.68384 44.81024-65.93536 44.81024-108.17024s-17.1264-80.4864-44.81024-108.16512zM405.56032 849.61792a23.69024 23.69024 0 0 1-38.05696 28.2112c-59.39712-79.70816-127.09888-183.21408-175.11936-281.46176l-0.01536-0.03584-0.0768 0.03584C154.09152 518.20032 128.2048 442.78272 128.2048 383.79008c0-105.96352 42.96704-201.91744 112.41984-271.37024C310.08256 42.96704 406.03136 0 512 0c105.96352 0 201.91744 42.96704 271.37024 112.42496 69.4528 69.4528 112.41984 165.40672 112.41984 271.37024 0 70.71744-40.89344 165.51424-95.39584 260.4032-101.77536 177.20832-252.09344 357.39648-264.64256 371.72736a23.68512 23.68512 0 0 1-35.64544-31.18592c12.30336-14.04416 159.62624-190.62784 259.26656-364.1088 50.7904-88.42752 88.89856-175.31392 88.89856-236.8256 0-92.84608-37.64736-176.91648-98.49856-237.76768C688.91648 85.16608 604.84608 47.51872 512 47.51872c-92.84608 0-176.91648 37.64736-237.76768 98.50368-60.85632 60.8512-98.50368 144.92672-98.50368 237.76768 0 51.08736 23.936 119.50592 59.25888 191.78496l-0.0768 0.04096c46.52544 95.1808 112.56832 196.05504 170.6496 274.00192z" fill="#BBB" p-id="1443"></path></svg>
